<?xml version="1.0" standalone="no"?>
<!DOCTYPE svg PUBLIC "-//W3C//DTD SVG 20010904//EN"
 "http://www.w3.org/TR/2001/REC-SVG-20010904/DTD/svg10.dtd">
<svg version="1.0" xmlns="http://www.w3.org/2000/svg"
 width="112.000000pt" height="112.000000pt" viewBox="0 0 112.000000 112.000000"
 preserveAspectRatio="xMidYMid meet">
<metadata>
Created by potrace 1.14, written by Peter Selinger 2001-2017
</metadata>
<g transform="translate(0.000000,112.000000) scale(0.100000,-0.100000)"
fill="#000000" stroke="none">
<path d="M78 1041 c-21 -21 -28 -38 -28 -67 0 -38 8 -47 190 -229 l190 -190
-190 -190 c-184 -184 -190 -191 -190 -231 0 -55 39 -94 96 -94 38 0 47 7 229
190 l190 190 190 -190 c184 -184 191 -190 231 -190 55 0 94 39 94 95 0 38 -8
48 -190 230 l-190 190 190 190 c178 178 190 192 190 227 0 56 -40 98 -93 98
-41 0 -46 -4 -232 -190 l-190 -190 -190 190 c-184 184 -192 190 -230 190 -30
0 -47 -7 -67 -29z"/>
<path d="M50 555 l0 -340 97 98 98 97 -2 146 -1 147 -96 96 -96 96 0 -340z"/>
<path d="M982 797 l-92 -92 0 -150 0 -150 95 -95 95 -95 0 338 c0 185 -1 337
-3 337 -1 0 -44 -42 -95 -93z"/>
</g>
</svg>
